<svg fill="none" height="12" viewBox="0 0 19 12" width="19" xmlns="http://www.w3.org/2000/svg">
    <ellipse cx="2.89285" cy="9.23419" fill="white" rx="2.89285" ry="2.76593"/>
    <rect fill="white" height="1.06382" width="8.5714" x="2.78564" y="10.936"/>
    <ellipse cx="11.3572" cy="8.38261" fill="white" rx="3.64285" ry="3.61698"/>
    <ellipse cx="6.85709" cy="6.99994" fill="white" rx="4.71427" ry="4.99994"/>
    <path clip-rule="evenodd"
          d="M12 4C13.8018 4 15.7336 6.13702 15.7499 7.9765C18.1083 7.72192 19.415 5.47901 18.8815 5.17994C18.7277 5.09375 18.574 5.15885 18.3528 5.25248C18.1016 5.35884 17.7634 5.50203 17.2394 5.50203C15.5975 5.50203 13.6271 4.53578 13.6271 2.12018C13.6271 1.17987 13.8302 0.812257 13.9541 0.588098C14.0529 0.40916 14.1013 0.321633 13.9555 0.107172C13.6403 -0.35658 11.4565 0.687858 11.0613 3.17942C11.2859 3.43292 11.4826 3.71216 11.648 4.01508C11.7639 4.0051 11.8814 4 12 4Z"
          fill="white" fill-rule="evenodd"/>
</svg>
