<svg fill="none" height="15" viewBox="0 0 14 15" width="14" xmlns="http://www.w3.org/2000/svg">
    <path d="M6.05091 14.9971C2.13562 14.8742 9.14772e-05 12.5386 0 8.85076C-0.000115865 4.17951 3.7699 2.17128 4.27111 2.95024C4.7457 3.6878 3.79653 3.44195 3.79653 6.02343C3.79653 9.71126 6.64402 11.1864 9.01693 11.1864C10.4407 11.1864 10.9152 10.4136 11.3899 10.6947C12.2203 11.1864 9.9662 15.1201 6.05091 14.9971Z"
          fill="white"/>
    <path clip-rule="evenodd"
          d="M8.54224 5.28808V5.87669C8.62201 5.88286 8.70141 5.89086 8.77983 5.90042C10.7968 6.14628 10.9154 6.73199 10.9154 8.23605C10.9154 8.27743 10.9144 8.31851 10.9123 8.35926H11.6274C11.7461 6.39245 11.8647 6.14659 13.763 5.90074C13.8461 5.88997 13.9251 5.88655 13.9999 5.88991V5.27205C13.9251 5.28137 13.8462 5.28613 13.763 5.28613C12.1562 5.28613 11.6274 4.79442 11.5087 2.95051C11.5032 2.86419 11.5032 2.78227 11.5083 2.70459H10.9767C10.9764 2.74482 10.9749 2.78609 10.9719 2.82842C10.8561 4.50956 10.7299 5.16404 8.71771 5.28697C8.65698 5.29068 8.59851 5.291 8.54224 5.28808Z"
          fill="white" fill-rule="evenodd"/>
    <path clip-rule="evenodd"
          d="M6.16943 1.68526V2.06896C6.22142 2.07298 6.27316 2.0782 6.32426 2.08443C7.63967 2.24477 7.71705 2.62676 7.71705 3.60766C7.71705 3.63459 7.71636 3.66132 7.715 3.68783H8.1812C8.25857 2.4052 8.33598 2.24486 9.57398 2.08453C9.6283 2.07749 9.67987 2.07527 9.72879 2.07748V1.67437C9.67989 1.68047 9.62832 1.68359 9.57397 1.68359C8.52606 1.68359 8.18118 1.36291 8.1038 0.16036C8.10018 0.104076 8.10016 0.0506556 8.10353 0H7.75686C7.7567 0.0263524 7.75567 0.0533879 7.75376 0.0811183C7.6782 1.17752 7.59594 1.60435 6.28361 1.68452C6.2441 1.68694 6.20605 1.68715 6.16943 1.68526Z"
          fill="white" fill-rule="evenodd"/>
</svg>
