<svg fill="none" height="15" viewBox="0 0 19 15" width="19" xmlns="http://www.w3.org/2000/svg">
    <path d="M18.625 13.7803H0.375C0.125 13.7803 0 14.1461 0 14.39C0 14.6339 0.125 14.9998 0.375 14.9998H18.625C18.875 14.9998 19 14.6339 19 14.39C19 14.1461 18.875 13.7803 18.625 13.7803Z"
          fill="white"/>
    <path d="M1.375 12.0735C1.125 12.0735 0.875 11.667 0.875 11.4638C0.875 11.2605 1.125 10.854 1.375 10.854H3.875C4.125 10.854 4.375 11.2605 4.375 11.4638C4.375 11.667 4.125 12.0735 3.875 12.0735H1.375Z"
          fill="#F8D74A"/>
    <path d="M3.34467 6.45139C3.16789 6.27893 3.28574 5.81902 3.43306 5.6753C3.58037 5.53158 4.05178 5.41661 4.22855 5.58907L5.99632 7.31372C6.1731 7.48618 6.05525 7.94609 5.90793 8.08981C5.76062 8.23353 5.28921 8.34851 5.11244 8.17604L3.34467 6.45139Z"
          fill="#F8D74A"/>
    <path d="M15.125 12.0735C14.875 12.0735 14.625 11.667 14.625 11.4638C14.625 11.2605 14.875 10.854 15.125 10.854H17.625C17.875 10.854 18.125 11.2605 18.125 11.4638C18.125 11.667 17.875 12.0735 17.625 12.0735H15.125Z"
          fill="#F8D74A"/>
    <path d="M13.8624 8.17609C13.6857 8.34855 13.2143 8.23357 13.0669 8.08985C12.9196 7.94613 12.8018 7.48623 12.9786 7.31376L14.7463 5.58911C14.9231 5.41665 15.3945 5.53163 15.5418 5.67535C15.6891 5.81907 15.807 6.27897 15.6302 6.45144L13.8624 8.17609Z"
          fill="#F8D74A"/>
    <path clip-rule="evenodd"
          d="M13.2925 13.0489C13.5065 12.5624 13.625 12.0264 13.625 11.4633C13.625 9.24074 11.7782 7.43896 9.5 7.43896C7.22183 7.43896 5.375 9.24074 5.375 11.4633C5.375 12.0264 5.4935 12.5624 5.7075 13.0489H13.2925Z"
          fill="#F8D74A" fill-rule="evenodd"/>
    <path d="M10.1249 5.60975C10.1249 5.9756 9.74993 6.09755 9.49992 6.09755C9.2499 6.09755 8.87492 5.9756 8.87492 5.60975V1.82927L7.37492 3.29268C7.12492 3.53658 6.83203 3.49473 6.62492 3.29268C6.41781 3.09062 6.37491 2.80487 6.62492 2.56097L8.87492 0.365859C9.18899 0.0594463 9.37492 0 9.49993 0C9.62495 0 9.81085 0.059439 10.1249 0.365845L12.3749 2.56097C12.6249 2.80487 12.5655 3.07572 12.3749 3.29268C12.1525 3.54579 11.8749 3.53658 11.6249 3.29268L10.1249 1.82927V5.60975Z"
          fill="white"/>
</svg>
