<svg fill="none" height="9" viewBox="0 0 10 9" width="10" xmlns="http://www.w3.org/2000/svg">
    <path clip-rule="evenodd"
          d="M2 0C0.895431 0 0 0.89543 0 2V7C0 8.10457 0.89543 9 2 9H8C9.10457 9 10 8.10457 10 7V2C10 0.895431 9.10457 0 8 0H2ZM2 2.5C1.44772 2.5 1 2.94772 1 3.5V7C1 7.55228 1.44772 8 2 8H8C8.55229 8 9 7.55228 9 7V3.5C9 2.94772 8.55229 2.5 8 2.5H2Z"
          fill="white" fill-rule="evenodd"/>
    <circle cx="5.8999" cy="6.5" fill="white" r="0.5"/>
    <circle cx="2.5" cy="6.5" fill="white" r="0.5"/>
    <circle cx="4.1001" cy="6.5" fill="white" r="0.5"/>
    <circle cx="7.5" cy="5" fill="white" r="0.5"/>
    <circle cx="5.8999" cy="5" fill="white" r="0.5"/>
    <circle cx="2.5" cy="5" fill="white" r="0.5"/>
    <circle cx="4.1001" cy="5" fill="white" r="0.5"/>
    <circle cx="7.5" cy="3.5" fill="white" r="0.5"/>
    <circle cx="5.90015" cy="3.5" fill="white" r="0.5"/>
    <circle cx="4.1001" cy="3.5" fill="white" r="0.5"/>
</svg>
