<svg fill="none" height="13" viewBox="0 0 10 13" width="10" xmlns="http://www.w3.org/2000/svg">
    <path clip-rule="evenodd"
          d="M9.84717 7.23181C9.94702 6.83777 10 6.42505 10 6C10 3.23853 7.76147 1 5 1C2.23853 1 0 3.23853 0 6C0 6.42505 0.0529785 6.83777 0.152832 7.23181C0.454102 6.50854 1.16772 6 2 6C2.59741 6 3.13354 6.26184 3.5 6.67712C3.86646 6.26184 4.40259 6 5 6C5.59741 6 6.13354 6.26184 6.5 6.67712C6.86646 6.26184 7.40259 6 8 6C8.83228 6 9.5459 6.50854 9.84717 7.23181Z"
          fill="white" fill-rule="evenodd"/>
    <path d="M5 1V11C5 11.5 4.5 12 4 12C3.5 12 3 11.5 3 11" stroke="white" stroke-linecap="round"/>
</svg>
