<svg fill="none" height="11" viewBox="0 0 12 11" width="12" xmlns="http://www.w3.org/2000/svg">
    <path d="M1 5.7143C1.54795 5.42858 2.68875 5.28572 4.0137 5.28572C5.33865 5.28572 8.80822 6.14287 9.63014 6.14287C10.4521 6.14287 11 5.42858 11 4.57143C11 3.71429 10.589 3 9.63014 3C8.67123 3 8.26027 3.85715 8.12329 4.28572"
          stroke="white" stroke-linecap="round"/>
    <path d="M1.13696 3.57144C1.82189 3.28572 2.91778 3.14287 3.60272 3.14287C4.42463 3.14287 5.52052 3.28572 6.06847 3.28572C6.61642 3.28572 7.16436 2.85715 7.16436 2.14286C7.16436 1.42857 6.61642 0.999991 6.06847 1C5.52052 1.00001 5.10957 1.42858 4.97258 1.85716"
          stroke="white" stroke-linecap="round"/>
    <path d="M1 7.71422C1.54795 7.57136 3.19178 7.28564 3.87671 7.28564C5.71706 7.28565 7.0274 7.57135 7.0274 8.99993C7.0274 9.42851 6.64845 9.99994 5.93151 9.99994C5.21456 9.99994 4.9726 9.42851 4.83562 8.99993"
          stroke="white" stroke-linecap="round"/>
</svg>
