<svg fill="none" height="366" viewBox="0 0 366 366" width="366" xmlns="http://www.w3.org/2000/svg">
    <rect fill="#B8B8B8" height="4" rx="1" width="21" y="181"/>
    <path d="M35.5 168H28.5L36.5 198H42.5C44.8521 190.763 48 179 48 179H48.5L53.5 198H60L68 168H61L56.5 189H56L51 168H45.5L40.5 188H40L35.5 168Z"
          fill="#B8B8B8"/>
    <rect fill="#B8B8B8" height="21" rx="1" width="4" x="181" y="345"/>
    <path d="M188.5 312H194.5C194.5 306 189.237 303 183.5 303C177.763 303 172 304.5 172 312.5C172 320.5 179.5 321.5 182.5 321.5C185.717 321.5 188.5 321.666 188.5 325C188.5 328.334 186 329 183.5 329C181 329 177 328 177 325.5H171C171 332.5 178 334.5 183.5 334.5C189 334.5 195 333 195 324.5C195 316 186.5 316 184.5 316C182.5 316 178 315 178 312C178 309 181.5 308 183.5 308C185.5 308 188 310 188.5 312Z"
          fill="#B8B8B8"/>
    <rect fill="#B8B8B8" height="4" rx="1" width="21" x="345" y="181"/>
    <path clip-rule="evenodd"
          d="M322.5 167C332 167 337 175 337 183C337 191 332 199 322.5 199C313 199 308 191.147 308 183C308 174.853 313 167 322.5 167ZM322.5 173C327.042 173 330.5 178 330.5 183C330.5 188 327 193.5 322.5 193.5C318 193.5 314.5 189 314.5 183C314.5 177 317.958 173 322.5 173Z"
          fill="#B8B8B8" fill-rule="evenodd"/>
    <path d="M182.142 1.43298C182.531 0.784574 183.47 0.784573 183.858 1.43298L193.312 17.2226C194.11 18.5557 193.15 20.25 191.596 20.25H174.405C172.851 20.25 171.89 18.5557 172.689 17.2226L182.142 1.43298Z"
          fill="#B8B8B8"/>
    <path d="M170 61V31H176L189 49V31H196V61H190L177 43V61H170Z" fill="#B8B8B8"/>
    <path clip-rule="evenodd"
          d="M176.928 365.901L177.661 344.913C176.993 344.892 176.327 344.866 175.662 344.836L174.929 365.825C175.594 365.854 176.261 365.879 176.928 365.901Z"
          fill="#D9D9D9" fill-opacity="0.2" fill-rule="evenodd"/>
    <path clip-rule="evenodd"
          d="M170.15 365.556L171.615 344.606C170.949 344.56 170.285 344.509 169.621 344.455L168.156 365.406C168.82 365.46 169.484 365.509 170.15 365.556Z"
          fill="#D9D9D9" fill-opacity="0.2" fill-rule="evenodd"/>
    <path clip-rule="evenodd"
          d="M163.944 365.02L166.139 344.133C165.475 344.064 164.813 343.992 164.151 343.915L161.956 364.803C162.617 364.879 163.28 364.951 163.944 365.02Z"
          fill="#D9D9D9" fill-opacity="0.2" fill-rule="evenodd"/>
    <path clip-rule="evenodd"
          d="M157.035 364.172L159.958 343.374C159.297 343.279 158.637 343.181 157.979 343.079L155.056 363.88C155.714 363.981 156.374 364.078 157.035 364.172Z"
          fill="#D9D9D9" fill-opacity="0.2" fill-rule="evenodd"/>
    <path clip-rule="evenodd"
          d="M150.238 363.075L153.885 342.39C153.229 342.271 152.573 342.148 151.92 342.021L148.272 362.709C148.926 362.834 149.581 362.956 150.238 363.075Z"
          fill="#D9D9D9" fill-opacity="0.2" fill-rule="evenodd"/>
    <path clip-rule="evenodd"
          d="M143.52 361.73L147.888 341.184C147.236 341.04 146.586 340.893 145.937 340.741L141.569 361.29C142.218 361.44 142.869 361.587 143.52 361.73Z"
          fill="#D9D9D9" fill-opacity="0.2" fill-rule="evenodd"/>
    <path clip-rule="evenodd"
          d="M137.091 360.193L142.173 339.811C141.527 339.644 140.883 339.472 140.24 339.297L135.157 359.682C135.8 359.856 136.445 360.026 137.091 360.193Z"
          fill="#D9D9D9" fill-opacity="0.2" fill-rule="evenodd"/>
    <path clip-rule="evenodd"
          d="M130.122 358.244L135.913 338.05C135.274 337.857 134.637 337.659 134.002 337.458L128.21 357.656C128.846 357.856 129.483 358.052 130.122 358.244Z"
          fill="#D9D9D9" fill-opacity="0.2" fill-rule="evenodd"/>
    <path clip-rule="evenodd"
          d="M123.838 356.225L130.33 336.245C129.699 336.028 129.069 335.807 128.442 335.583L121.948 355.568C122.576 355.791 123.206 356.01 123.838 356.225Z"
          fill="#D9D9D9" fill-opacity="0.2" fill-rule="evenodd"/>
    <path clip-rule="evenodd"
          d="M117.309 353.856L124.495 334.113C123.873 333.872 123.253 333.628 122.634 333.379L115.446 353.127C116.066 353.373 116.687 353.616 117.309 353.856Z"
          fill="#D9D9D9" fill-opacity="0.2" fill-rule="evenodd"/>
    <path clip-rule="evenodd"
          d="M110.73 351.176L119.274 331.985C118.661 331.722 118.05 331.456 117.441 331.186L108.897 350.375C109.506 350.645 110.117 350.912 110.73 351.176Z"
          fill="#D9D9D9" fill-opacity="0.2" fill-rule="evenodd"/>
    <path clip-rule="evenodd"
          d="M104.579 348.393L113.788 329.512C113.185 329.227 112.584 328.938 111.985 328.646L102.777 347.525C103.376 347.817 103.977 348.106 104.579 348.393Z"
          fill="#D9D9D9" fill-opacity="0.2" fill-rule="evenodd"/>
    <path clip-rule="evenodd"
          d="M98.5867 345.41L108.448 326.864C107.856 326.556 107.266 326.245 106.679 325.931L96.8179 344.477C97.4056 344.791 97.9952 345.102 98.5867 345.41Z"
          fill="#D9D9D9" fill-opacity="0.2" fill-rule="evenodd"/>
    <path clip-rule="evenodd"
          d="M93.468 342.64L103.971 324.448C102.807 323.797 101.651 323.131 100.505 322.451L90.0027 340.642C91.1498 341.32 92.305 341.986 93.468 342.64Z"
          fill="#D9D9D9" fill-opacity="0.2" fill-rule="evenodd"/>
    <path clip-rule="evenodd"
          d="M86.7319 338.662L97.8618 320.85C97.2948 320.499 96.7301 320.145 96.1677 319.787L85.0377 337.599C85.6003 337.956 86.1651 338.31 86.7319 338.662Z"
          fill="#D9D9D9" fill-opacity="0.2" fill-rule="evenodd"/>
    <path clip-rule="evenodd"
          d="M81.0219 334.975L92.7661 317.563C92.2126 317.191 91.6616 316.816 91.1129 316.437L79.3682 333.85C79.9173 334.228 80.4685 334.603 81.0219 334.975Z"
          fill="#D9D9D9" fill-opacity="0.2" fill-rule="evenodd"/>
    <path clip-rule="evenodd"
          d="M75.2997 330.967L87.6441 313.976C87.1053 313.583 86.5691 313.187 86.0354 312.788L73.69 329.78C74.2243 330.178 74.7609 330.574 75.2997 330.967Z"
          fill="#D9D9D9" fill-opacity="0.2" fill-rule="evenodd"/>
    <path clip-rule="evenodd"
          d="M69.766 326.77L82.6955 310.22C82.1722 309.807 81.6514 309.391 81.1333 308.971L68.2023 325.522C68.7212 325.941 69.2424 326.357 69.766 326.77Z"
          fill="#D9D9D9" fill-opacity="0.2" fill-rule="evenodd"/>
    <path clip-rule="evenodd"
          d="M64.6264 322.563L78.1255 306.476C77.6175 306.044 77.1122 305.609 76.6096 305.171L63.1088 321.261C63.6123 321.698 64.1181 322.132 64.6264 322.563Z"
          fill="#D9D9D9" fill-opacity="0.2" fill-rule="evenodd"/>
    <path clip-rule="evenodd"
          d="M59.4975 318.042L73.5498 302.435C73.0583 301.985 72.5697 301.531 72.0838 301.074L58.0292 316.684C58.5161 317.139 59.0056 317.592 59.4975 318.042Z"
          fill="#D9D9D9" fill-opacity="0.2" fill-rule="evenodd"/>
    <path clip-rule="evenodd"
          d="M54.5172 313.312L69.106 298.204C68.6318 297.736 68.1605 297.264 67.6922 296.789L53.1006 311.899C53.5703 312.373 54.0425 312.843 54.5172 313.312Z"
          fill="#D9D9D9" fill-opacity="0.2" fill-rule="evenodd"/>
    <path clip-rule="evenodd"
          d="M49.6228 308.298L65.2329 294.242C64.775 293.758 64.32 293.27 63.868 292.78L48.2609 306.833C48.7122 307.324 49.1662 307.812 49.6228 308.298Z"
          fill="#D9D9D9" fill-opacity="0.2" fill-rule="evenodd"/>
    <path clip-rule="evenodd"
          d="M45.184 303.401L61.0332 289.624C60.5942 289.122 60.1583 288.618 59.7255 288.111L43.8757 301.889C44.3091 302.395 44.7452 302.9 45.184 303.401Z"
          fill="#D9D9D9" fill-opacity="0.2" fill-rule="evenodd"/>
    <path clip-rule="evenodd"
          d="M40.7323 298.113L57.2839 285.181C56.8631 284.664 56.4455 284.144 56.031 283.622L39.4817 296.552C39.8958 297.074 40.3126 297.595 40.7323 298.113Z"
          fill="#D9D9D9" fill-opacity="0.2" fill-rule="evenodd"/>
    <path clip-rule="evenodd"
          d="M36.3179 292.441L53.31 280.095C52.9101 279.562 52.5134 279.026 52.12 278.488L35.1294 290.832C35.5227 291.371 35.9189 291.907 36.3179 292.441Z"
          fill="#D9D9D9" fill-opacity="0.2" fill-rule="evenodd"/>
    <path clip-rule="evenodd"
          d="M32.3993 286.992L49.812 275.247C49.432 274.7 49.0553 274.149 48.6819 273.597L31.2704 285.341C31.6438 285.894 32.0201 286.444 32.3993 286.992Z"
          fill="#D9D9D9" fill-opacity="0.2" fill-rule="evenodd"/>
    <path clip-rule="evenodd"
          d="M28.7389 281.492L46.5513 270.362C46.1914 269.801 45.8348 269.237 45.4817 268.672L27.6703 279.802C28.0235 280.367 28.3797 280.931 28.7389 281.492Z"
          fill="#D9D9D9" fill-opacity="0.2" fill-rule="evenodd"/>
    <path clip-rule="evenodd"
          d="M25.6738 276.529L43.865 266.026C43.1811 264.882 42.5109 263.73 41.8546 262.568L23.6642 273.07C24.3218 274.231 24.9917 275.384 25.6738 276.529Z"
          fill="#D9D9D9" fill-opacity="0.2" fill-rule="evenodd"/>
    <path clip-rule="evenodd"
          d="M21.8216 269.737L40.3674 259.876C40.0507 259.29 39.7375 258.701 39.4279 258.111L20.8819 267.972C21.192 268.562 21.5053 269.151 21.8216 269.737Z"
          fill="#D9D9D9" fill-opacity="0.2" fill-rule="evenodd"/>
    <path clip-rule="evenodd"
          d="M18.7201 263.722L37.5991 254.514C37.3046 253.916 37.0136 253.316 36.7262 252.714L17.8466 261.923C18.1346 262.524 18.4257 263.124 18.7201 263.722Z"
          fill="#D9D9D9" fill-opacity="0.2" fill-rule="evenodd"/>
    <path clip-rule="evenodd"
          d="M15.7004 257.273L34.8896 248.729C34.619 248.12 34.352 247.51 34.0887 246.897L14.8979 255.441C15.1622 256.053 15.4297 256.664 15.7004 257.273Z"
          fill="#D9D9D9" fill-opacity="0.2" fill-rule="evenodd"/>
    <path clip-rule="evenodd"
          d="M13.1238 251.182L32.5999 243.313C32.3516 242.694 32.1071 242.074 31.8664 241.452L12.3884 249.322C12.6302 249.943 12.8754 250.563 13.1238 251.182Z"
          fill="#D9D9D9" fill-opacity="0.2" fill-rule="evenodd"/>
    <path clip-rule="evenodd"
          d="M10.5966 244.516L30.3359 237.331C30.1125 236.703 29.8929 236.074 29.677 235.443L9.93473 242.628C10.152 243.259 10.3726 243.888 10.5966 244.516Z"
          fill="#D9D9D9" fill-opacity="0.2" fill-rule="evenodd"/>
    <path clip-rule="evenodd"
          d="M8.5204 238.351L28.4985 231.86C28.2978 231.224 28.1009 230.587 27.9078 229.949L7.92659 236.441C8.12114 237.079 8.31909 237.716 8.5204 238.351Z"
          fill="#D9D9D9" fill-opacity="0.2" fill-rule="evenodd"/>
    <path clip-rule="evenodd"
          d="M6.46431 231.383L26.8515 226.3C26.6739 225.658 26.5 225.014 26.3301 224.368L5.94736 229.45C6.11625 230.096 6.28857 230.74 6.46431 231.383Z"
          fill="#D9D9D9" fill-opacity="0.2" fill-rule="evenodd"/>
    <path clip-rule="evenodd"
          d="M4.78199 224.74L25.3323 220.372C25.1792 219.724 25.03 219.074 24.8847 218.423L4.33828 222.79C4.48271 223.441 4.63062 224.091 4.78199 224.74Z"
          fill="#D9D9D9" fill-opacity="0.2" fill-rule="evenodd"/>
    <path clip-rule="evenodd"
          d="M3.34889 218.028L24.0371 214.38C23.9088 213.726 23.7845 213.071 23.6641 212.415L2.97905 216.062C3.09884 216.719 3.22212 217.374 3.34889 218.028Z"
          fill="#D9D9D9" fill-opacity="0.2" fill-rule="evenodd"/>
    <path clip-rule="evenodd"
          d="M2.1702 211.268L22.9712 208.345C22.8678 207.687 22.7684 207.027 22.673 206.367L1.87455 209.29C1.96958 209.95 2.06813 210.61 2.1702 211.268Z"
          fill="#D9D9D9" fill-opacity="0.2" fill-rule="evenodd"/>
    <path clip-rule="evenodd"
          d="M1.24812 204.484L22.1367 202.289C22.0583 201.628 21.9838 200.965 21.9133 200.301L1.02665 202.497C1.09693 203.16 1.17076 203.823 1.24812 204.484Z"
          fill="#D9D9D9" fill-opacity="0.2" fill-rule="evenodd"/>
    <path clip-rule="evenodd"
          d="M0.581947 197.7L21.533 196.235C21.4793 195.571 21.4296 194.906 21.384 194.24L0.434298 195.705C0.479959 196.371 0.529182 197.036 0.581947 197.7Z"
          fill="#D9D9D9" fill-opacity="0.2" fill-rule="evenodd"/>
    <path clip-rule="evenodd"
          d="M0.170851 190.972L21.1592 190.239C21.1299 189.574 21.1047 188.908 21.0835 188.241L0.0959702 188.974C0.117365 189.641 0.142332 190.307 0.170851 190.972Z"
          fill="#D9D9D9" fill-opacity="0.2" fill-rule="evenodd"/>
    <path clip-rule="evenodd"
          d="M176.927 0.399908L177.207 8.4027C176.539 8.42615 175.873 8.45363 175.208 8.48513L174.929 0.47585C175.594 0.446978 176.26 0.421658 176.927 0.399908Z"
          fill="#D9D9D9" fill-opacity="0.2" fill-rule="evenodd"/>
    <path clip-rule="evenodd"
          d="M170.149 0.745118L171.614 21.6948C170.948 21.741 170.284 21.7913 169.62 21.8456L168.155 0.894336C168.819 0.841048 169.484 0.791302 170.149 0.745118Z"
          fill="#D9D9D9" fill-opacity="0.2" fill-rule="evenodd"/>
    <path clip-rule="evenodd"
          d="M163.943 1.28125L166.138 22.1679C165.474 22.2365 164.812 22.3092 164.15 22.3859L161.955 1.49792C162.616 1.42216 163.279 1.34993 163.943 1.28125Z"
          fill="#D9D9D9" fill-opacity="0.2" fill-rule="evenodd"/>
    <path clip-rule="evenodd"
          d="M157.034 2.12891L159.957 22.9272C159.296 23.0213 158.637 23.1194 157.979 23.2214L155.055 2.421C155.714 2.32013 156.373 2.22275 157.034 2.12891Z"
          fill="#D9D9D9" fill-opacity="0.2" fill-rule="evenodd"/>
    <path clip-rule="evenodd"
          d="M150.237 3.2256L153.884 23.9104C153.228 24.0295 152.572 24.1526 151.919 24.2797L148.271 3.59214C148.925 3.46647 149.58 3.34428 150.237 3.2256Z"
          fill="#D9D9D9" fill-opacity="0.2" fill-rule="evenodd"/>
    <path clip-rule="evenodd"
          d="M143.52 4.5703L147.887 25.1164C147.236 25.2603 146.585 25.4083 145.937 25.5601L141.569 5.01059C142.218 4.86037 142.868 4.7136 143.52 4.5703Z"
          fill="#D9D9D9" fill-opacity="0.2" fill-rule="evenodd"/>
    <path clip-rule="evenodd"
          d="M137.09 6.10742L142.172 26.4894C141.526 26.6571 140.882 26.8287 140.239 27.0041L135.156 6.6184C135.799 6.44465 136.444 6.27431 137.09 6.10742Z"
          fill="#D9D9D9" fill-opacity="0.2" fill-rule="evenodd"/>
    <path clip-rule="evenodd"
          d="M130.121 8.05666L135.912 28.2505C135.273 28.4442 134.636 28.6417 134.001 28.8431L128.209 8.64433C128.845 8.44505 129.483 8.24916 130.121 8.05666Z"
          fill="#D9D9D9" fill-opacity="0.2" fill-rule="evenodd"/>
    <path clip-rule="evenodd"
          d="M123.837 10.0757L130.329 30.0558C129.698 30.2726 129.068 30.4933 128.441 30.7177L121.947 10.7325C122.576 10.5102 123.206 10.2913 123.837 10.0757Z"
          fill="#D9D9D9" fill-opacity="0.2" fill-rule="evenodd"/>
    <path clip-rule="evenodd"
          d="M117.309 12.4448L124.494 32.1874C123.872 32.4285 123.252 32.6733 122.633 32.9218L115.446 13.1734C116.065 12.9273 116.686 12.6844 117.309 12.4448Z"
          fill="#D9D9D9" fill-opacity="0.2" fill-rule="evenodd"/>
    <path clip-rule="evenodd"
          d="M110.729 15.125L119.274 34.3161C118.661 34.5787 118.049 34.845 117.44 35.1149L108.896 15.9256C109.506 15.6555 110.117 15.3886 110.729 15.125Z"
          fill="#D9D9D9" fill-opacity="0.2" fill-rule="evenodd"/>
    <path clip-rule="evenodd"
          d="M104.579 17.9082L113.787 36.7885C113.184 37.0738 112.583 37.3627 111.985 37.6552L102.777 18.7762C103.376 18.4837 103.976 18.1944 104.579 17.9082Z"
          fill="#D9D9D9" fill-opacity="0.2" fill-rule="evenodd"/>
    <path clip-rule="evenodd"
          d="M98.5859 20.8906L108.447 39.4371C107.855 39.7445 107.266 40.0554 106.678 40.3698L96.8172 21.8242C97.4048 21.5099 97.9944 21.1987 98.5859 20.8906Z"
          fill="#D9D9D9" fill-opacity="0.2" fill-rule="evenodd"/>
    <path clip-rule="evenodd"
          d="M93.4673 23.6611L103.97 41.8523C102.806 42.5041 101.65 43.1699 100.504 43.8495L90.002 25.659C91.1491 24.9808 92.3043 24.3148 93.4673 23.6611Z"
          fill="#D9D9D9" fill-opacity="0.2" fill-rule="evenodd"/>
    <path clip-rule="evenodd"
          d="M86.7314 27.6392L97.8613 45.4508C97.2943 45.8017 96.7296 46.1561 96.1672 46.5138L85.0372 28.702C85.5998 28.3447 86.1646 27.9904 86.7314 27.6392Z"
          fill="#D9D9D9" fill-opacity="0.2" fill-rule="evenodd"/>
    <path clip-rule="evenodd"
          d="M81.0214 31.3262L92.7656 48.7378C92.2121 49.1097 91.6611 49.4849 91.1124 49.8634L79.3677 32.4511C79.9168 32.0732 80.468 31.6982 81.0214 31.3262Z"
          fill="#D9D9D9" fill-opacity="0.2" fill-rule="evenodd"/>
    <path clip-rule="evenodd"
          d="M75.2992 35.334L87.6436 52.3245C87.1048 52.7174 86.5686 53.1136 86.0349 53.513L73.6895 36.5211C74.2239 36.1225 74.7604 35.7268 75.2992 35.334Z"
          fill="#D9D9D9" fill-opacity="0.2" fill-rule="evenodd"/>
    <path clip-rule="evenodd"
          d="M69.7652 39.5312L82.6948 56.0803C82.1715 56.4935 81.6507 56.9099 81.1326 57.3294L68.2015 40.7784C68.7205 40.3599 69.2417 39.9442 69.7652 39.5312Z"
          fill="#D9D9D9" fill-opacity="0.2" fill-rule="evenodd"/>
    <path clip-rule="evenodd"
          d="M64.6257 43.7373L78.1248 59.8249C77.6168 60.2568 77.1115 60.6917 76.6089 61.1298L63.108 45.0401C63.6115 44.6031 64.1174 44.1688 64.6257 43.7373Z"
          fill="#D9D9D9" fill-opacity="0.2" fill-rule="evenodd"/>
    <path clip-rule="evenodd"
          d="M59.4967 48.2588L73.5491 63.8655C73.0576 64.3161 72.5689 64.7697 72.0831 65.2263L58.0285 49.6171C58.5154 49.1617 59.0048 48.7089 59.4967 48.2588Z"
          fill="#D9D9D9" fill-opacity="0.2" fill-rule="evenodd"/>
    <path clip-rule="evenodd"
          d="M54.5165 52.9893L69.1052 68.0963C68.6311 68.5651 68.1598 69.0368 67.6914 69.5114L53.0999 54.4014C53.5695 53.9281 54.0417 53.4574 54.5165 52.9893Z"
          fill="#D9D9D9" fill-opacity="0.2" fill-rule="evenodd"/>
    <path clip-rule="evenodd"
          d="M49.6221 58.0029L65.2322 72.0583C64.7742 72.5429 64.3193 73.0304 63.8673 73.5206L48.2602 59.4679C48.7115 58.9771 49.1655 58.4888 49.6221 58.0029Z"
          fill="#D9D9D9" fill-opacity="0.2" fill-rule="evenodd"/>
    <path clip-rule="evenodd"
          d="M45.1833 62.8994L61.0325 76.6769C60.5935 77.1786 60.1576 77.683 59.7248 78.1902L43.875 64.4122C44.3084 63.9055 44.7445 63.4013 45.1833 62.8994Z"
          fill="#D9D9D9" fill-opacity="0.2" fill-rule="evenodd"/>
    <path clip-rule="evenodd"
          d="M40.7315 68.188L57.2832 81.1196C56.8624 81.6366 56.4448 82.1564 56.0303 82.6787L39.4809 69.749C39.895 69.2263 40.3119 68.706 40.7315 68.188Z"
          fill="#D9D9D9" fill-opacity="0.2" fill-rule="evenodd"/>
    <path clip-rule="evenodd"
          d="M36.3172 73.8599L53.3093 86.2053C52.9094 86.7386 52.5127 87.2745 52.1193 87.8129L35.1287 75.4685C35.522 74.93 35.9182 74.3938 36.3172 73.8599Z"
          fill="#D9D9D9" fill-opacity="0.2" fill-rule="evenodd"/>
    <path clip-rule="evenodd"
          d="M32.3986 79.3086L49.8113 91.0536C49.4313 91.6012 49.0546 92.1513 48.6812 92.7038L31.2696 80.9596C31.643 80.4071 32.0193 79.8568 32.3986 79.3086Z"
          fill="#D9D9D9" fill-opacity="0.2" fill-rule="evenodd"/>
    <path clip-rule="evenodd"
          d="M28.7385 84.8081L46.5508 95.9385C46.1909 96.4995 45.8343 97.0628 45.4812 97.6285L27.6698 86.4987C28.023 85.9331 28.3792 85.3695 28.7385 84.8081Z"
          fill="#D9D9D9" fill-opacity="0.2" fill-rule="evenodd"/>
    <path clip-rule="evenodd"
          d="M25.673 89.7715L43.8643 100.274C43.1804 101.418 42.5101 102.571 41.8539 103.732L23.6634 93.23C24.321 92.0692 24.991 90.9163 25.673 89.7715Z"
          fill="#D9D9D9" fill-opacity="0.2" fill-rule="evenodd"/>
    <path clip-rule="evenodd"
          d="M21.8209 96.5635L40.3667 106.424C40.05 107.011 39.7368 107.599 39.4271 108.19L20.8812 98.329C21.1913 97.7386 21.5045 97.1501 21.8209 96.5635Z"
          fill="#D9D9D9" fill-opacity="0.2" fill-rule="evenodd"/>
    <path clip-rule="evenodd"
          d="M18.7193 102.579L37.5984 111.787C37.3038 112.385 37.0128 112.985 36.7255 113.586L17.8458 104.378C18.1338 103.777 18.425 103.177 18.7193 102.579Z"
          fill="#D9D9D9" fill-opacity="0.2" fill-rule="evenodd"/>
    <path clip-rule="evenodd"
          d="M15.6999 109.028L34.8892 117.571C34.6185 118.18 34.3515 118.791 34.0882 119.404L14.8974 110.86C15.1617 110.247 15.4292 109.637 15.6999 109.028Z"
          fill="#D9D9D9" fill-opacity="0.2" fill-rule="evenodd"/>
    <path clip-rule="evenodd"
          d="M13.1233 115.119L32.5994 122.987C32.3512 123.606 32.1067 124.226 31.8659 124.848L12.3879 116.979C12.6298 116.357 12.8749 115.737 13.1233 115.119Z"
          fill="#D9D9D9" fill-opacity="0.2" fill-rule="evenodd"/>
    <path clip-rule="evenodd"
          d="M10.5958 121.785L30.3352 128.97C30.1118 129.597 29.8921 130.227 29.6763 130.858L9.934 123.673C10.1513 123.042 10.3719 122.413 10.5958 121.785Z"
          fill="#D9D9D9" fill-opacity="0.2" fill-rule="evenodd"/>
    <path clip-rule="evenodd"
          d="M8.51991 127.95L28.498 134.441C28.2973 135.076 28.1004 135.713 27.9073 136.352L7.92611 129.86C8.12066 129.222 8.3186 128.585 8.51991 127.95Z"
          fill="#D9D9D9" fill-opacity="0.2" fill-rule="evenodd"/>
    <path clip-rule="evenodd"
          d="M6.46358 134.918L26.8508 140.001C26.6731 140.643 26.4993 141.287 26.3294 141.932L5.94663 136.85C6.11551 136.205 6.28784 135.561 6.46358 134.918Z"
          fill="#D9D9D9" fill-opacity="0.2" fill-rule="evenodd"/>
    <path clip-rule="evenodd"
          d="M4.78125 141.561L25.3315 145.929C25.1784 146.577 25.0292 147.227 24.8839 147.878L4.33754 143.511C4.48198 142.859 4.62989 142.209 4.78125 141.561Z"
          fill="#D9D9D9" fill-opacity="0.2" fill-rule="evenodd"/>
    <path clip-rule="evenodd"
          d="M3.3484 148.273L24.0366 151.921C23.9083 152.574 23.784 153.229 23.6636 153.886L2.97857 150.239C3.09835 149.582 3.22163 148.927 3.3484 148.273Z"
          fill="#D9D9D9" fill-opacity="0.2" fill-rule="evenodd"/>
    <path clip-rule="evenodd"
          d="M2.16971 155.033L22.9707 157.956C22.8673 158.614 22.7679 159.273 22.6725 159.934L1.87406 157.011C1.96909 156.35 2.06765 155.691 2.16971 155.033Z"
          fill="#D9D9D9" fill-opacity="0.2" fill-rule="evenodd"/>
    <path clip-rule="evenodd"
          d="M1.24739 161.816L22.136 164.012C22.0575 164.673 21.9831 165.336 21.9126 165.999L1.02592 163.804C1.0962 163.14 1.17003 162.478 1.24739 161.816Z"
          fill="#D9D9D9" fill-opacity="0.2" fill-rule="evenodd"/>
    <path clip-rule="evenodd"
          d="M0.581459 168.601L21.5325 170.066C21.4788 170.73 21.4291 171.395 21.3835 172.061L0.433809 170.596C0.479471 169.93 0.528694 169.265 0.581459 168.601Z"
          fill="#D9D9D9" fill-opacity="0.2" fill-rule="evenodd"/>
    <path clip-rule="evenodd"
          d="M0.170118 175.329L21.1584 176.062C21.1292 176.727 21.104 177.393 21.0827 178.06L0.0952377 177.327C0.116632 176.66 0.1416 175.994 0.170118 175.329Z"
          fill="#D9D9D9" fill-opacity="0.2" fill-rule="evenodd"/>
    <path clip-rule="evenodd"
          d="M188.733 365.801L188 344.813C188.667 344.792 189.333 344.766 189.999 344.736L190.731 365.725C190.066 365.754 189.4 365.779 188.733 365.801Z"
          fill="#D9D9D9" fill-opacity="0.2" fill-rule="evenodd"/>
    <path clip-rule="evenodd"
          d="M195.51 365.456L194.045 344.506C194.711 344.46 195.376 344.409 196.04 344.355L197.505 365.306C196.841 365.36 196.176 365.409 195.51 365.456Z"
          fill="#D9D9D9" fill-opacity="0.2" fill-rule="evenodd"/>
    <path clip-rule="evenodd"
          d="M201.717 364.919L199.521 344.033C200.185 343.964 200.848 343.891 201.51 343.815L203.705 364.703C203.043 364.779 202.381 364.851 201.717 364.919Z"
          fill="#D9D9D9" fill-opacity="0.2" fill-rule="evenodd"/>
    <path clip-rule="evenodd"
          d="M208.626 364.072L205.703 343.273C206.364 343.179 207.023 343.081 207.681 342.979L210.605 363.78C209.946 363.881 209.287 363.978 208.626 364.072Z"
          fill="#D9D9D9" fill-opacity="0.2" fill-rule="evenodd"/>
    <path clip-rule="evenodd"
          d="M215.423 362.975L211.775 342.29C212.432 342.171 213.087 342.048 213.741 341.921L217.389 362.609C216.735 362.734 216.079 362.856 215.423 362.975Z"
          fill="#D9D9D9" fill-opacity="0.2" fill-rule="evenodd"/>
    <path clip-rule="evenodd"
          d="M222.14 361.63L217.773 341.084C218.425 340.94 219.075 340.792 219.723 340.641L224.091 361.19C223.442 361.34 222.792 361.487 222.14 361.63Z"
          fill="#D9D9D9" fill-opacity="0.2" fill-rule="evenodd"/>
    <path clip-rule="evenodd"
          d="M228.57 360.093L223.488 339.711C224.134 339.544 224.778 339.372 225.421 339.197L230.503 359.582C229.86 359.756 229.216 359.926 228.57 360.093Z"
          fill="#D9D9D9" fill-opacity="0.2" fill-rule="evenodd"/>
    <path clip-rule="evenodd"
          d="M235.539 358.144L229.748 337.95C230.387 337.756 231.024 337.559 231.659 337.358L237.451 357.556C236.815 357.756 236.177 357.952 235.539 358.144Z"
          fill="#D9D9D9" fill-opacity="0.2" fill-rule="evenodd"/>
    <path clip-rule="evenodd"
          d="M241.823 356.125L235.331 336.145C235.962 335.928 236.591 335.707 237.219 335.483L243.713 355.468C243.084 355.69 242.454 355.909 241.823 356.125Z"
          fill="#D9D9D9" fill-opacity="0.2" fill-rule="evenodd"/>
    <path clip-rule="evenodd"
          d="M248.351 353.756L241.166 334.013C241.788 333.772 242.408 333.527 243.027 333.279L250.214 353.027C249.595 353.273 248.974 353.516 248.351 353.756Z"
          fill="#D9D9D9" fill-opacity="0.2" fill-rule="evenodd"/>
    <path clip-rule="evenodd"
          d="M254.931 351.076L246.386 331.885C246.999 331.622 247.611 331.356 248.22 331.086L256.763 350.275C256.154 350.545 255.543 350.812 254.931 351.076Z"
          fill="#D9D9D9" fill-opacity="0.2" fill-rule="evenodd"/>
    <path clip-rule="evenodd"
          d="M261.082 348.292L251.873 329.412C252.476 329.127 253.077 328.838 253.676 328.546L262.883 347.424C262.285 347.717 261.684 348.006 261.082 348.292Z"
          fill="#D9D9D9" fill-opacity="0.2" fill-rule="evenodd"/>
    <path clip-rule="evenodd"
          d="M267.074 345.31L257.213 326.764C257.805 326.456 258.395 326.145 258.982 325.831L268.843 344.377C268.255 344.691 267.666 345.002 267.074 345.31Z"
          fill="#D9D9D9" fill-opacity="0.2" fill-rule="evenodd"/>
    <path clip-rule="evenodd"
          d="M272.193 342.54L261.69 324.348C262.854 323.697 264.009 323.031 265.156 322.351L275.658 340.542C274.511 341.22 273.356 341.886 272.193 342.54Z"
          fill="#D9D9D9" fill-opacity="0.2" fill-rule="evenodd"/>
    <path clip-rule="evenodd"
          d="M278.929 338.561L267.799 320.75C268.366 320.399 268.931 320.044 269.493 319.687L280.623 337.499C280.06 337.856 279.496 338.21 278.929 338.561Z"
          fill="#D9D9D9" fill-opacity="0.2" fill-rule="evenodd"/>
    <path clip-rule="evenodd"
          d="M284.639 334.874L272.894 317.463C273.448 317.091 273.999 316.716 274.548 316.337L286.292 333.749C285.743 334.127 285.192 334.502 284.639 334.874Z"
          fill="#D9D9D9" fill-opacity="0.2" fill-rule="evenodd"/>
    <path clip-rule="evenodd"
          d="M290.361 330.867L278.017 313.876C278.555 313.483 279.092 313.087 279.625 312.688L291.971 329.68C291.436 330.078 290.9 330.474 290.361 330.867Z"
          fill="#D9D9D9" fill-opacity="0.2" fill-rule="evenodd"/>
    <path clip-rule="evenodd"
          d="M295.895 326.669L282.965 310.12C283.489 309.707 284.009 309.291 284.528 308.871L297.459 325.422C296.94 325.841 296.418 326.257 295.895 326.669Z"
          fill="#D9D9D9" fill-opacity="0.2" fill-rule="evenodd"/>
    <path clip-rule="evenodd"
          d="M301.034 322.463L287.535 306.376C288.043 305.944 288.548 305.509 289.051 305.071L302.552 321.161C302.048 321.598 301.542 322.032 301.034 322.463Z"
          fill="#D9D9D9" fill-opacity="0.2" fill-rule="evenodd"/>
    <path clip-rule="evenodd"
          d="M306.164 317.942L292.111 302.335C292.603 301.885 293.091 301.431 293.577 300.974L307.632 316.584C307.145 317.039 306.656 317.492 306.164 317.942Z"
          fill="#D9D9D9" fill-opacity="0.2" fill-rule="evenodd"/>
    <path clip-rule="evenodd"
          d="M311.143 313.211L296.555 298.104C297.029 297.636 297.5 297.164 297.968 296.689L312.56 311.799C312.09 312.273 311.618 312.743 311.143 313.211Z"
          fill="#D9D9D9" fill-opacity="0.2" fill-rule="evenodd"/>
    <path clip-rule="evenodd"
          d="M316.038 308.198L300.428 294.142C300.886 293.658 301.341 293.17 301.793 292.68L317.4 306.733C316.948 307.224 316.494 307.712 316.038 308.198Z"
          fill="#D9D9D9" fill-opacity="0.2" fill-rule="evenodd"/>
    <path clip-rule="evenodd"
          d="M320.477 303.301L304.628 289.524C305.067 289.022 305.503 288.518 305.936 288.011L321.785 301.789C321.352 302.295 320.916 302.799 320.477 303.301Z"
          fill="#D9D9D9" fill-opacity="0.2" fill-rule="evenodd"/>
    <path clip-rule="evenodd"
          d="M324.929 298.013L308.377 285.081C308.798 284.564 309.215 284.044 309.63 283.522L326.179 296.452C325.765 296.974 325.348 297.495 324.929 298.013Z"
          fill="#D9D9D9" fill-opacity="0.2" fill-rule="evenodd"/>
    <path clip-rule="evenodd"
          d="M329.343 292.341L312.351 279.995C312.751 279.462 313.147 278.926 313.541 278.388L330.531 290.732C330.138 291.271 329.742 291.807 329.343 292.341Z"
          fill="#D9D9D9" fill-opacity="0.2" fill-rule="evenodd"/>
    <path clip-rule="evenodd"
          d="M333.261 286.892L315.849 275.147C316.229 274.599 316.605 274.049 316.979 273.497L334.39 285.241C334.017 285.794 333.641 286.344 333.261 286.892Z"
          fill="#D9D9D9" fill-opacity="0.2" fill-rule="evenodd"/>
    <path clip-rule="evenodd"
          d="M336.922 281.392L319.109 270.262C319.469 269.701 319.826 269.138 320.179 268.572L337.99 279.702C337.637 280.267 337.281 280.831 336.922 281.392Z"
          fill="#D9D9D9" fill-opacity="0.2" fill-rule="evenodd"/>
    <path clip-rule="evenodd"
          d="M339.987 276.429L321.796 265.926C322.48 264.782 323.15 263.63 323.806 262.468L341.997 272.97C341.339 274.131 340.669 275.284 339.987 276.429Z"
          fill="#D9D9D9" fill-opacity="0.2" fill-rule="evenodd"/>
    <path clip-rule="evenodd"
          d="M343.839 269.637L325.293 259.776C325.61 259.19 325.923 258.601 326.233 258.011L344.778 267.872C344.468 268.462 344.155 269.051 343.839 269.637Z"
          fill="#D9D9D9" fill-opacity="0.2" fill-rule="evenodd"/>
    <path clip-rule="evenodd"
          d="M346.941 263.622L328.062 254.414C328.356 253.816 328.647 253.216 328.934 252.614L347.814 261.822C347.526 262.424 347.235 263.024 346.941 263.622Z"
          fill="#D9D9D9" fill-opacity="0.2" fill-rule="evenodd"/>
    <path clip-rule="evenodd"
          d="M349.96 257.173L330.771 248.629C331.041 248.02 331.308 247.409 331.572 246.796L350.763 255.341C350.498 255.953 350.231 256.564 349.96 257.173Z"
          fill="#D9D9D9" fill-opacity="0.2" fill-rule="evenodd"/>
    <path clip-rule="evenodd"
          d="M352.537 251.082L333.061 243.213C333.309 242.595 333.553 241.975 333.794 241.352L353.272 249.222C353.03 249.844 352.785 250.464 352.537 251.082Z"
          fill="#D9D9D9" fill-opacity="0.2" fill-rule="evenodd"/>
    <path clip-rule="evenodd"
          d="M355.064 244.416L335.325 237.231C335.548 236.603 335.768 235.974 335.984 235.342L355.726 242.528C355.509 243.159 355.288 243.788 355.064 244.416Z"
          fill="#D9D9D9" fill-opacity="0.2" fill-rule="evenodd"/>
    <path clip-rule="evenodd"
          d="M357.14 238.251L337.162 231.76C337.363 231.124 337.56 230.487 337.753 229.849L357.734 236.341C357.54 236.979 357.342 237.616 357.14 238.251Z"
          fill="#D9D9D9" fill-opacity="0.2" fill-rule="evenodd"/>
    <path clip-rule="evenodd"
          d="M359.196 231.283L338.809 226.2C338.987 225.557 339.161 224.914 339.331 224.268L359.713 229.35C359.544 229.996 359.372 230.64 359.196 231.283Z"
          fill="#D9D9D9" fill-opacity="0.2" fill-rule="evenodd"/>
    <path clip-rule="evenodd"
          d="M360.878 224.64L340.328 220.272C340.481 219.624 340.63 218.974 340.776 218.322L361.322 222.69C361.178 223.341 361.03 223.991 360.878 224.64Z"
          fill="#D9D9D9" fill-opacity="0.2" fill-rule="evenodd"/>
    <path clip-rule="evenodd"
          d="M362.311 217.928L341.623 214.28C341.751 213.626 341.875 212.971 341.996 212.315L362.681 215.962C362.561 216.619 362.438 217.274 362.311 217.928Z"
          fill="#D9D9D9" fill-opacity="0.2" fill-rule="evenodd"/>
    <path clip-rule="evenodd"
          d="M363.49 211.168L342.689 208.245C342.793 207.587 342.892 206.927 342.988 206.267L363.786 209.19C363.691 209.85 363.593 210.51 363.49 211.168Z"
          fill="#D9D9D9" fill-opacity="0.2" fill-rule="evenodd"/>
    <path clip-rule="evenodd"
          d="M364.413 204.384L343.524 202.189C343.602 201.527 343.677 200.865 343.747 200.201L364.634 202.397C364.564 203.06 364.49 203.723 364.413 204.384Z"
          fill="#D9D9D9" fill-opacity="0.2" fill-rule="evenodd"/>
    <path clip-rule="evenodd"
          d="M365.078 197.6L344.127 196.135C344.181 195.471 344.231 194.806 344.276 194.14L365.226 195.605C365.18 196.271 365.131 196.936 365.078 197.6Z"
          fill="#D9D9D9" fill-opacity="0.2" fill-rule="evenodd"/>
    <path clip-rule="evenodd"
          d="M365.49 190.872L344.501 190.139C344.531 189.474 344.556 188.808 344.577 188.141L365.565 188.873C365.543 189.541 365.518 190.207 365.49 190.872Z"
          fill="#D9D9D9" fill-opacity="0.2" fill-rule="evenodd"/>
    <path clip-rule="evenodd"
          d="M188.734 0.29981L188.451 8.40131C189.118 8.42474 189.784 8.45221 190.449 8.48369L190.732 0.375751C190.067 0.346879 189.401 0.321559 188.734 0.29981Z"
          fill="#D9D9D9" fill-opacity="0.2" fill-rule="evenodd"/>
    <path clip-rule="evenodd"
          d="M195.511 0.64502L194.046 21.5947C194.712 21.641 195.377 21.6912 196.041 21.7455L197.506 0.794239C196.842 0.74095 196.177 0.691204 195.511 0.64502Z"
          fill="#D9D9D9" fill-opacity="0.2" fill-rule="evenodd"/>
    <path clip-rule="evenodd"
          d="M201.718 1.18115L199.522 22.0678C200.186 22.1364 200.849 22.2091 201.511 22.2858L203.706 1.39782C203.044 1.32206 202.382 1.24983 201.718 1.18115Z"
          fill="#D9D9D9" fill-opacity="0.2" fill-rule="evenodd"/>
    <path clip-rule="evenodd"
          d="M208.627 2.02881L205.704 22.8271C206.364 22.9212 207.024 23.0193 207.682 23.1213L210.605 2.32091C209.947 2.22003 209.287 2.12266 208.627 2.02881Z"
          fill="#D9D9D9" fill-opacity="0.2" fill-rule="evenodd"/>
    <path clip-rule="evenodd"
          d="M215.424 3.1255L211.776 23.8103C212.433 23.9294 213.088 24.0525 213.742 24.1796L217.39 3.49204C216.736 3.36637 216.08 3.24419 215.424 3.1255Z"
          fill="#D9D9D9" fill-opacity="0.2" fill-rule="evenodd"/>
    <path clip-rule="evenodd"
          d="M222.141 4.47021L217.773 25.0163C218.425 25.1602 219.075 25.3082 219.724 25.46L224.092 4.9105C223.443 4.76027 222.792 4.6135 222.141 4.47021Z"
          fill="#D9D9D9" fill-opacity="0.2" fill-rule="evenodd"/>
    <path clip-rule="evenodd"
          d="M228.571 6.00732L223.489 26.3893C224.135 26.557 224.779 26.7286 225.422 26.904L230.504 6.5183C229.861 6.34455 229.217 6.17422 228.571 6.00732Z"
          fill="#D9D9D9" fill-opacity="0.2" fill-rule="evenodd"/>
    <path clip-rule="evenodd"
          d="M235.54 7.95656L229.749 28.1504C230.388 28.3441 231.025 28.5416 231.66 28.743L237.452 8.54423C236.816 8.34496 236.178 8.14906 235.54 7.95656Z"
          fill="#D9D9D9" fill-opacity="0.2" fill-rule="evenodd"/>
    <path clip-rule="evenodd"
          d="M241.823 9.97558L235.332 29.9557C235.963 30.1726 236.592 30.3932 237.219 30.6176L243.713 10.6324C243.085 10.4101 242.455 10.1912 241.823 9.97558Z"
          fill="#D9D9D9" fill-opacity="0.2" fill-rule="evenodd"/>
    <path clip-rule="evenodd"
          d="M248.352 12.3447L241.166 32.0873C241.788 32.3284 242.409 32.5732 243.027 32.8217L250.215 13.0733C249.595 12.8272 248.974 12.5843 248.352 12.3447Z"
          fill="#D9D9D9" fill-opacity="0.2" fill-rule="evenodd"/>
    <path clip-rule="evenodd"
          d="M254.931 15.0249L246.387 34.216C247 34.4786 247.611 34.7449 248.22 35.0148L256.764 15.8255C256.155 15.5554 255.544 15.2885 254.931 15.0249Z"
          fill="#D9D9D9" fill-opacity="0.2" fill-rule="evenodd"/>
    <path clip-rule="evenodd"
          d="M261.082 17.8081L251.874 36.6884C252.476 36.9737 253.077 37.2626 253.676 37.5551L262.884 18.6761C262.285 18.3836 261.684 18.0943 261.082 17.8081Z"
          fill="#D9D9D9" fill-opacity="0.2" fill-rule="evenodd"/>
    <path clip-rule="evenodd"
          d="M267.075 20.7905L257.213 39.337C257.805 39.6444 258.395 39.9553 258.983 40.2697L268.843 21.7241C268.256 21.4098 267.666 21.0986 267.075 20.7905Z"
          fill="#D9D9D9" fill-opacity="0.2" fill-rule="evenodd"/>
    <path clip-rule="evenodd"
          d="M272.193 23.561L261.69 41.7522C262.855 42.404 264.01 43.0698 265.156 43.7494L275.658 25.5589C274.511 24.8807 273.356 24.2147 272.193 23.561Z"
          fill="#D9D9D9" fill-opacity="0.2" fill-rule="evenodd"/>
    <path clip-rule="evenodd"
          d="M278.929 27.5392L267.799 45.3508C268.366 45.7017 268.931 46.0561 269.493 46.4138L280.623 28.602C280.061 28.2448 279.496 27.8905 278.929 27.5392Z"
          fill="#D9D9D9" fill-opacity="0.2" fill-rule="evenodd"/>
    <path clip-rule="evenodd"
          d="M284.639 31.2262L272.895 48.6378C273.448 49.0097 274 49.3849 274.548 49.7634L286.293 32.3512C285.744 31.9732 285.193 31.5982 284.639 31.2262Z"
          fill="#D9D9D9" fill-opacity="0.2" fill-rule="evenodd"/>
    <path clip-rule="evenodd"
          d="M290.361 35.2339L278.017 52.2244C278.556 52.6173 279.092 53.0135 279.626 53.4129L291.971 36.421C291.437 36.0224 290.9 35.6267 290.361 35.2339Z"
          fill="#D9D9D9" fill-opacity="0.2" fill-rule="evenodd"/>
    <path clip-rule="evenodd"
          d="M295.895 39.4311L282.966 55.9802C283.489 56.3934 284.01 56.8098 284.528 57.2293L297.459 40.6783C296.94 40.2598 296.419 39.8441 295.895 39.4311Z"
          fill="#D9D9D9" fill-opacity="0.2" fill-rule="evenodd"/>
    <path clip-rule="evenodd"
          d="M301.035 43.6372L287.536 59.7248C288.044 60.1567 288.549 60.5916 289.052 61.0297L302.553 44.94C302.049 44.503 301.543 44.0687 301.035 43.6372Z"
          fill="#D9D9D9" fill-opacity="0.2" fill-rule="evenodd"/>
    <path clip-rule="evenodd"
          d="M306.164 48.1587L292.112 63.7654C292.603 64.216 293.092 64.6696 293.578 65.1262L307.632 49.517C307.145 49.0616 306.656 48.6088 306.164 48.1587Z"
          fill="#D9D9D9" fill-opacity="0.2" fill-rule="evenodd"/>
    <path clip-rule="evenodd"
          d="M311.144 52.8892L296.556 67.9962C297.03 68.465 297.501 68.9367 297.969 69.4113L312.561 54.3013C312.091 53.828 311.619 53.3573 311.144 52.8892Z"
          fill="#D9D9D9" fill-opacity="0.2" fill-rule="evenodd"/>
    <path clip-rule="evenodd"
          d="M316.039 57.9028L300.429 71.9582C300.887 72.4428 301.342 72.9303 301.794 73.4205L317.401 59.3678C316.949 58.877 316.495 58.3887 316.039 57.9028Z"
          fill="#D9D9D9" fill-opacity="0.2" fill-rule="evenodd"/>
    <path clip-rule="evenodd"
          d="M320.478 62.7993L304.628 76.5768C305.067 77.0785 305.503 77.5829 305.936 78.0901L321.786 64.3121C321.352 63.8054 320.916 63.3012 320.478 62.7993Z"
          fill="#D9D9D9" fill-opacity="0.2" fill-rule="evenodd"/>
    <path clip-rule="evenodd"
          d="M324.929 68.0879L308.377 81.0195C308.798 81.5365 309.216 82.0563 309.63 82.5786L326.18 69.6489C325.766 69.1262 325.349 68.6059 324.929 68.0879Z"
          fill="#D9D9D9" fill-opacity="0.2" fill-rule="evenodd"/>
    <path clip-rule="evenodd"
          d="M329.343 73.7598L312.351 86.1052C312.751 86.6385 313.148 87.1744 313.541 87.7128L330.532 75.3684C330.138 74.8299 329.742 74.2937 329.343 73.7598Z"
          fill="#D9D9D9" fill-opacity="0.2" fill-rule="evenodd"/>
    <path clip-rule="evenodd"
          d="M333.262 79.2085L315.849 90.9535C316.229 91.5011 316.606 92.0512 316.979 92.6037L334.391 80.8595C334.017 80.307 333.641 79.7567 333.262 79.2085Z"
          fill="#D9D9D9" fill-opacity="0.2" fill-rule="evenodd"/>
    <path clip-rule="evenodd"
          d="M336.922 84.7081L319.11 95.8385C319.47 96.3995 319.826 96.9628 320.179 97.5285L337.991 86.3987C337.637 85.8331 337.281 85.2696 336.922 84.7081Z"
          fill="#D9D9D9" fill-opacity="0.2" fill-rule="evenodd"/>
    <path clip-rule="evenodd"
          d="M339.988 89.6719L321.796 100.175C322.48 101.318 323.151 102.471 323.807 103.633L341.997 93.1304C341.34 91.9696 340.67 90.8167 339.988 89.6719Z"
          fill="#D9D9D9" fill-opacity="0.2" fill-rule="evenodd"/>
    <path clip-rule="evenodd"
          d="M343.84 96.4634L325.294 106.324C325.611 106.911 325.924 107.499 326.234 108.09L344.779 98.2289C344.469 97.6385 344.156 97.05 343.84 96.4634Z"
          fill="#D9D9D9" fill-opacity="0.2" fill-rule="evenodd"/>
    <path clip-rule="evenodd"
          d="M346.941 102.479L328.062 111.687C328.357 112.285 328.648 112.885 328.935 113.486L347.815 104.278C347.527 103.677 347.235 103.077 346.941 102.479Z"
          fill="#D9D9D9" fill-opacity="0.2" fill-rule="evenodd"/>
    <path clip-rule="evenodd"
          d="M349.961 108.928L330.771 117.471C331.042 118.08 331.309 118.691 331.572 119.304L350.763 110.76C350.499 110.147 350.231 109.537 349.961 108.928Z"
          fill="#D9D9D9" fill-opacity="0.2" fill-rule="evenodd"/>
    <path clip-rule="evenodd"
          d="M352.538 115.019L333.062 122.887C333.31 123.506 333.554 124.126 333.795 124.748L353.273 116.879C353.031 116.257 352.786 115.637 352.538 115.019Z"
          fill="#D9D9D9" fill-opacity="0.2" fill-rule="evenodd"/>
    <path clip-rule="evenodd"
          d="M355.065 121.685L335.326 128.87C335.549 129.497 335.769 130.127 335.985 130.758L355.727 123.573C355.51 122.942 355.289 122.313 355.065 121.685Z"
          fill="#D9D9D9" fill-opacity="0.2" fill-rule="evenodd"/>
    <path clip-rule="evenodd"
          d="M357.141 127.85L337.163 134.341C337.363 134.976 337.56 135.613 337.753 136.252L357.735 129.76C357.54 129.121 357.342 128.485 357.141 127.85Z"
          fill="#D9D9D9" fill-opacity="0.2" fill-rule="evenodd"/>
    <path clip-rule="evenodd"
          d="M359.197 134.818L338.81 139.901C338.987 140.543 339.161 141.187 339.331 141.832L359.714 136.75C359.545 136.105 359.373 135.461 359.197 134.818Z"
          fill="#D9D9D9" fill-opacity="0.2" fill-rule="evenodd"/>
    <path clip-rule="evenodd"
          d="M360.879 141.46L340.329 145.829C340.482 146.477 340.631 147.127 340.777 147.778L361.323 143.411C361.179 142.759 361.031 142.109 360.879 141.46Z"
          fill="#D9D9D9" fill-opacity="0.2" fill-rule="evenodd"/>
    <path clip-rule="evenodd"
          d="M362.312 148.173L341.624 151.821C341.752 152.474 341.876 153.129 341.997 153.786L362.682 150.139C362.562 149.482 362.439 148.827 362.312 148.173Z"
          fill="#D9D9D9" fill-opacity="0.2" fill-rule="evenodd"/>
    <path clip-rule="evenodd"
          d="M363.491 154.933L342.69 157.856C342.793 158.514 342.893 159.173 342.988 159.834L363.787 156.911C363.692 156.25 363.593 155.591 363.491 154.933Z"
          fill="#D9D9D9" fill-opacity="0.2" fill-rule="evenodd"/>
    <path clip-rule="evenodd"
          d="M364.413 161.716L343.525 163.912C343.603 164.573 343.678 165.236 343.748 165.899L364.635 163.704C364.565 163.04 364.491 162.378 364.413 161.716Z"
          fill="#D9D9D9" fill-opacity="0.2" fill-rule="evenodd"/>
    <path clip-rule="evenodd"
          d="M365.079 168.501L344.128 169.966C344.182 170.63 344.231 171.295 344.277 171.96L365.227 170.496C365.181 169.83 365.132 169.165 365.079 168.501Z"
          fill="#D9D9D9" fill-opacity="0.2" fill-rule="evenodd"/>
    <path clip-rule="evenodd"
          d="M365.491 175.229L344.502 175.961C344.532 176.627 344.557 177.293 344.578 177.96L365.566 177.227C365.544 176.56 365.519 175.894 365.491 175.229Z"
          fill="#D9D9D9" fill-opacity="0.2" fill-rule="evenodd"/>
</svg>
